<svg width="135" height="116" viewBox="0 0 135 116" fill="none" xmlns="http://www.w3.org/2000/svg">
<path d="M67.1467 110.452C92.0462 110.452 112.231 90.1384 112.231 65.08C112.231 40.0216 92.0462 19.7078 67.1467 19.7078C42.2471 19.7078 22.062 40.0216 22.062 65.08C22.062 90.1384 42.2471 110.452 67.1467 110.452Z" fill="#EAEEF9"/>
<path d="M22.7876 110.543H115.406" stroke="#EBF0F6" stroke-width="2" stroke-miterlimit="10" stroke-linecap="round" stroke-linejoin="round"/>
<path d="M89.2808 109.813C82.3865 109.996 74.1316 109.813 68.3259 109.722C62.5203 109.904 54.2653 109.996 47.3711 109.813C54.1746 105.888 56.5332 98.6755 56.896 93.9283H79.6651C80.2094 98.5842 82.568 105.888 89.2808 109.813Z" fill="url(#paint0_linear_104_549)"/>
<path d="M48.0966 111H88.5549C89.0992 111 89.6434 110.544 89.6434 109.904C89.6434 109.357 89.1899 108.809 88.5549 108.809H48.0966C47.5523 108.809 47.0081 109.265 47.0081 109.904C47.0988 110.544 47.5523 111 48.0966 111Z" fill="#EBF0F6"/>
<path d="M111.415 33.4016V93.1068C111.415 94.5674 110.235 95.6629 108.875 95.6629H28.2304C26.8697 95.6629 25.6904 94.4761 25.6904 93.1068V33.4016C25.6904 32.0323 26.8697 30.8455 28.2304 30.8455H108.875C110.326 30.8455 111.415 32.0323 111.415 33.4016Z" fill="#F5F8FF"/>
<path d="M111.415 33.4016V84.7992H25.6904V33.4016C25.6904 32.0323 26.8697 30.8455 28.2304 30.8455H108.875C110.326 30.8455 111.415 32.0323 111.415 33.4016Z" fill="#172D45"/>
<path d="M108.149 34.132H28.5933V81.9691H108.149V34.132Z" fill="white"/>
<path d="M68.4165 92.6502C69.5688 92.6502 70.5029 91.7102 70.5029 90.5505C70.5029 89.3909 69.5688 88.4508 68.4165 88.4508C67.2642 88.4508 66.3301 89.3909 66.3301 90.5505C66.3301 91.7102 67.2642 92.6502 68.4165 92.6502Z" fill="#DBDFE6"/>
<path d="M37.3639 28.9169C38.555 28.5273 39.2067 27.2397 38.8196 26.041C38.4325 24.8422 37.153 24.1863 35.9619 24.5759C34.7708 24.9656 34.119 26.2532 34.5062 27.4519C34.8933 28.6506 36.1728 29.3065 37.3639 28.9169Z" fill="#EAEEF9"/>
<path d="M42.3144 21.4702C43.1244 21.2053 43.5676 20.3297 43.3043 19.5146C43.0411 18.6995 42.1711 18.2535 41.3611 18.5184C40.5511 18.7833 40.1079 19.6589 40.3712 20.474C40.6345 21.2892 41.5045 21.7352 42.3144 21.4702Z" fill="#EAEEF9"/>
<path d="M125.455 52.2364C126.861 50.9439 126.959 48.7495 125.674 47.3352C124.39 45.9208 122.21 45.8221 120.804 47.1146C119.399 48.4071 119.301 50.6014 120.585 52.0157C121.869 53.4301 124.05 53.5289 125.455 52.2364Z" fill="#EAEEF9"/>
<path d="M125.716 36.6838C126.307 36.1395 126.349 35.2156 125.808 34.6201C125.267 34.0245 124.349 33.983 123.757 34.5272C123.166 35.0714 123.124 35.9953 123.665 36.5909C124.206 37.1864 125.124 37.228 125.716 36.6838Z" fill="#EAEEF9"/>
<path d="M109.691 23.177C110.493 23.177 111.143 22.523 111.143 21.7163C111.143 20.9096 110.493 20.2556 109.691 20.2556C108.89 20.2556 108.24 20.9096 108.24 21.7163C108.24 22.523 108.89 23.177 109.691 23.177Z" fill="url(#paint1_linear_104_549)"/>
<path d="M103.523 42.8959V49.0125C103.523 49.9254 102.797 50.6558 101.89 50.6558H34.7617C33.8546 50.6558 33.1289 49.9254 33.1289 49.0125V42.8959C33.1289 41.983 33.8546 41.2527 34.7617 41.2527H101.89C102.797 41.2527 103.523 41.983 103.523 42.8959Z" fill="#E3EAF2"/>
<path d="M42.563 41.2527V50.7471H34.6709C33.7638 50.7471 33.0381 50.0167 33.0381 49.1038V42.9872C33.0381 42.0743 33.7638 41.344 34.6709 41.344H42.563V41.2527Z" fill="#CED7E2"/>
<path d="M103.523 55.677V61.7935C103.523 62.7065 102.797 63.4368 101.89 63.4368H34.7617C33.8546 63.4368 33.1289 62.7065 33.1289 61.7935V55.677C33.1289 54.764 33.8546 54.0337 34.7617 54.0337H101.89C102.797 54.0337 103.523 54.764 103.523 55.677Z" fill="#E3EAF2"/>
<path d="M42.563 54.0337V63.5281H34.6709C33.7638 63.5281 33.0381 62.7977 33.0381 61.8848V55.7682C33.0381 54.8553 33.7638 54.125 34.6709 54.125H42.563V54.0337Z" fill="#6B84FF"/>
<path d="M37.4831 60.7893C37.3017 60.7893 37.1203 60.698 37.0295 60.6067L35.5781 59.146C35.306 58.8722 35.306 58.4157 35.5781 58.1418C35.8503 57.8679 36.3038 57.8679 36.576 58.1418L37.4831 59.0547L39.6602 56.8637C39.9324 56.5899 40.3859 56.5899 40.6581 56.8637C40.9302 57.1376 40.9302 57.5941 40.6581 57.8679L37.9367 60.5154C37.846 60.698 37.6645 60.7893 37.4831 60.7893Z" fill="white"/>
<path d="M103.523 68.4578V74.5744C103.523 75.4873 102.797 76.2177 101.89 76.2177H34.7617C33.8546 76.2177 33.1289 75.4873 33.1289 74.5744V68.4578C33.1289 67.5449 33.8546 66.8146 34.7617 66.8146H101.89C102.797 66.8146 103.523 67.5449 103.523 68.4578Z" fill="#E3EAF2"/>
<path d="M42.563 66.8146V76.309H34.6709C33.7638 76.309 33.0381 75.5786 33.0381 74.6657V68.5491C33.0381 67.6362 33.7638 66.9059 34.6709 66.9059H42.563V66.8146Z" fill="#CED7E2"/>
<path d="M103.523 81.2387V81.9691H33.0381V81.2387C33.0381 80.3258 33.7638 79.5955 34.6709 79.5955H101.799C102.797 79.5955 103.523 80.3258 103.523 81.2387Z" fill="#E3EAF2"/>
<path d="M42.563 79.5955V81.9691H33.0381V81.2387C33.0381 80.3258 33.7638 79.5955 34.6709 79.5955H42.563Z" fill="#CED7E2"/>
<path d="M32.2217 106.526C32.2217 108.261 30.861 109.63 29.1375 109.63H11.9019C10.1783 109.63 8.81763 108.261 8.81763 106.526V66.0837C8.81763 64.3491 10.1783 62.9797 11.9019 62.9797H29.0468C30.7703 62.9797 32.131 64.3491 32.131 66.0837V106.526H32.2217Z" fill="white"/>
<path d="M29.1375 62.8889C30.861 62.8889 32.2217 64.2583 32.2217 65.9929V106.435C32.2217 108.17 30.861 109.539 29.1375 109.539H11.9019C10.1783 109.539 8.81763 108.17 8.81763 106.435V66.0841C8.81763 64.3496 10.1783 62.9802 11.9019 62.9802H29.1375V62.8889Z" fill="#1C3754"/>
<path d="M30.6796 66.0842V106.527C30.6796 107.348 30.0446 108.079 29.1375 108.079H29.0468H11.9019H11.8112C10.9948 108.079 10.269 107.348 10.269 106.527V66.0842C10.269 65.1713 10.9948 64.5323 11.8112 64.5323H14.3512C14.714 64.5323 14.9861 64.8061 14.9861 65.1713C14.9861 65.8103 15.5304 66.3581 16.1654 66.3581H24.8739C25.5089 66.3581 26.0532 65.8103 26.0532 65.1713C26.0532 64.8061 26.3253 64.5323 26.5975 64.5323H29.0468C29.9539 64.441 30.6796 65.1713 30.6796 66.0842Z" fill="white"/>
<path d="M21.971 65.0799H19.7032C19.5218 65.0799 19.3403 64.8974 19.3403 64.7148C19.3403 64.5322 19.5218 64.3496 19.7032 64.3496H21.971C22.1525 64.3496 22.3339 64.5322 22.3339 64.7148C22.3339 64.8974 22.1525 65.0799 21.971 65.0799Z" fill="#2D5887"/>
<path d="M18.4334 65.0799H18.252C18.0706 65.0799 17.8892 64.8974 17.8892 64.7148C17.8892 64.5322 18.0706 64.3496 18.252 64.3496H18.4334C18.6149 64.3496 18.7963 64.5322 18.7963 64.7148C18.7963 64.8974 18.6149 65.0799 18.4334 65.0799Z" fill="#2D5887"/>
<path d="M28.321 79.5042H12.7183C12.2647 79.5042 11.9019 79.139 11.9019 78.6825V70.8314C11.9019 70.3749 12.2647 70.0098 12.7183 70.0098H28.4117C28.8653 70.0098 29.2281 70.3749 29.2281 70.8314V78.6825C29.1374 79.139 28.7746 79.5042 28.321 79.5042Z" fill="#6B84FF"/>
<path d="M19.8845 76.7655C19.7031 76.7655 19.5216 76.6742 19.4309 76.5829L17.9795 75.1222C17.7074 74.8484 17.7074 74.3919 17.9795 74.118C18.2516 73.8441 18.7052 73.8441 18.9773 74.118L19.8845 75.0309L22.0616 72.8399C22.3337 72.5661 22.7873 72.5661 23.0595 72.8399C23.3316 73.1138 23.3316 73.5703 23.0595 73.8441L20.4288 76.4916C20.2473 76.6742 20.0659 76.7655 19.8845 76.7655Z" fill="white"/>
<path d="M28.321 91.2809H12.7183C12.2647 91.2809 11.9019 90.9157 11.9019 90.4593V82.6081C11.9019 82.1517 12.2647 81.7865 12.7183 81.7865H28.4117C28.8653 81.7865 29.2281 82.1517 29.2281 82.6081V90.4593C29.1374 90.9157 28.7746 91.2809 28.321 91.2809Z" fill="#CED7E2"/>
<path d="M28.321 103.149H12.7183C12.2647 103.149 11.9019 102.784 11.9019 102.327V94.4762C11.9019 94.0197 12.2647 93.6545 12.7183 93.6545H28.4117C28.8653 93.6545 29.2281 94.0197 29.2281 94.4762V102.327C29.1374 102.784 28.7746 103.149 28.321 103.149Z" fill="#E3EAF2"/>
<path d="M29.1376 106.435V108.079H29.0469H11.902H11.8113V106.435C11.8113 105.979 12.1741 105.614 12.6277 105.614H28.3212C28.7747 105.614 29.1376 105.979 29.1376 106.435Z" fill="#E3EAF2"/>
<path d="M31.9496 37.7836C32.4506 37.7836 32.8568 37.3749 32.8568 36.8707C32.8568 36.3665 32.4506 35.9578 31.9496 35.9578C31.4486 35.9578 31.0425 36.3665 31.0425 36.8707C31.0425 37.3749 31.4486 37.7836 31.9496 37.7836Z" fill="#E3EAF2"/>
<path d="M34.8524 37.7836C35.3534 37.7836 35.7596 37.3749 35.7596 36.8707C35.7596 36.3665 35.3534 35.9578 34.8524 35.9578C34.3515 35.9578 33.9453 36.3665 33.9453 36.8707C33.9453 37.3749 34.3515 37.7836 34.8524 37.7836Z" fill="#E3EAF2"/>
<path d="M37.7553 37.7836C38.2563 37.7836 38.6624 37.3749 38.6624 36.8707C38.6624 36.3665 38.2563 35.9578 37.7553 35.9578C37.2543 35.9578 36.8481 36.3665 36.8481 36.8707C36.8481 37.3749 37.2543 37.7836 37.7553 37.7836Z" fill="#E3EAF2"/>
<g filter="url(#filter0_d_104_549)">
<path d="M125.669 88.2776C125.579 88.5515 125.579 88.9166 125.488 89.1905C125.216 90.1947 124.944 91.1076 124.49 91.9293C122.404 96.5852 118.413 100.054 113.605 101.424C113.333 101.515 113.06 101.606 112.879 101.606C110.43 102.245 107.799 102.336 105.168 101.789C95.8248 99.8715 89.7469 90.5601 91.7426 81.157C93.6476 71.7539 102.901 65.637 112.244 67.6454C115.6 68.3758 118.594 70.0192 120.952 72.3928C125.125 76.501 126.939 82.5262 125.669 88.2776Z" fill="url(#paint2_linear_104_549)"/>
</g>
<path d="M124.478 91.9199C122.391 96.5758 118.4 100.045 113.592 101.414L102 89.7709L104.883 89.5463L111.143 88.816L112 79.5L124.478 91.9199Z" fill="url(#paint3_linear_104_549)"/>
<path d="M101.671 88.9584C101.671 87.9542 102.76 88.4106 103.395 86.2196C104.121 83.5722 103.032 81.016 105.844 78.825C106.026 78.6424 106.298 78.5511 106.57 78.3685C106.661 78.2772 106.751 78.1859 106.751 78.0946C106.661 77.0904 107.386 76.1775 108.384 76.0862C109.382 75.9949 110.289 76.7252 110.38 77.7295C110.38 77.8207 110.38 77.912 110.38 77.912C110.38 78.0946 110.471 78.1859 110.561 78.2772C112.557 79.2814 113.373 81.016 113.464 83.207C113.827 88.1368 114.916 87.4064 115.551 88.2281C116.095 89.0497 115.278 89.9626 114.19 89.9626C103.395 90.3278 101.671 90.3278 101.671 88.9584Z" fill="url(#paint4_linear_104_549)"/>
<path d="M107.931 93.1578C107.024 92.7926 106.57 91.7884 106.933 90.9668C106.933 90.8755 107.024 90.7842 107.205 90.7842C108.203 90.7842 109.11 90.7842 110.108 90.7842C110.199 90.7842 110.38 90.8755 110.38 90.9668C110.652 91.6058 110.38 92.4274 109.926 92.8839C109.382 93.3404 108.566 93.4317 107.931 93.1578Z" fill="url(#paint5_linear_104_549)"/>
<g filter="url(#filter1_d_104_549)">
<path d="M29.8633 19.16C29.954 22.1727 27.5047 24.7288 24.5112 24.8201H23.0597L19.0683 24.9114C13.0812 25.0027 8.18271 20.2555 8.00129 14.1389C7.91057 8.11366 12.6277 3.18388 18.6148 3.00129C24.6019 2.91 29.5911 7.6572 29.7725 13.6825L29.8633 15.9648V19.16Z" fill="url(#paint6_linear_104_549)"/>
</g>
<path d="M29.8631 19.16C29.9538 22.1727 27.5046 24.7289 24.511 24.8202H23.0596L15.6211 17.3342L21.971 11.5828L24.1482 10.3047L29.7724 15.9648L29.8631 19.16Z" fill="url(#paint7_linear_104_549)"/>
<path d="M17.4354 18.5209C17.0726 18.5209 16.7097 18.4296 16.4376 18.1557L13.8069 15.5083C13.2626 14.9605 13.2626 14.1389 13.8069 13.5911C14.3512 13.0434 15.1676 13.0434 15.7119 13.5911L17.3447 15.2344L22.2433 10.3046C22.7875 9.75686 23.604 9.75686 24.1482 10.3046C24.6925 10.8524 24.6925 11.674 24.1482 12.2218L18.3426 18.0645C18.0704 18.3383 17.7076 18.5209 17.4354 18.5209Z" fill="url(#paint8_linear_104_549)"/>
<path d="M17.1633 54.9466V53.1207" stroke="#83A0FF" stroke-linecap="round" stroke-linejoin="round"/>
<path d="M17.1633 49.8342V37.9662" stroke="#83A0FF" stroke-linecap="round" stroke-linejoin="round" stroke-dasharray="3.7 3.7"/>
<path d="M17.1633 36.3229V34.4971" stroke="#83A0FF" stroke-linecap="round" stroke-linejoin="round"/>
<path d="M17.0727 59.6024C17.7741 59.6024 18.3427 59.0302 18.3427 58.3244C18.3427 57.6185 17.7741 57.0463 17.0727 57.0463C16.3713 57.0463 15.8027 57.6185 15.8027 58.3244C15.8027 59.0302 16.3713 59.6024 17.0727 59.6024Z" stroke="#83A0FF" stroke-miterlimit="10"/>
<path d="M17.0727 32.2149C17.7741 32.2149 18.3427 31.6427 18.3427 30.9368C18.3427 30.2309 17.7741 29.6587 17.0727 29.6587C16.3713 29.6587 15.8027 30.2309 15.8027 30.9368C15.8027 31.6427 16.3713 32.2149 17.0727 32.2149Z" stroke="#83A0FF" stroke-miterlimit="10"/>
<path d="M36.3042 13.865H38.1185" stroke="#83A0FF" stroke-linecap="round" stroke-linejoin="round"/>
<path d="M41.7471 13.865H63.609C66.784 13.865 69.324 16.4212 69.324 19.6164V52.4816" stroke="#83A0FF" stroke-linecap="round" stroke-linejoin="round" stroke-dasharray="3.99 3.99"/>
<path d="M69.2334 54.2163V56.0422" stroke="#83A0FF" stroke-linecap="round" stroke-linejoin="round"/>
<path d="M33.4919 14.9605C34.0931 14.9605 34.5804 14.4701 34.5804 13.865C34.5804 13.26 34.0931 12.7695 33.4919 12.7695C32.8907 12.7695 32.4033 13.26 32.4033 13.865C32.4033 14.4701 32.8907 14.9605 33.4919 14.9605Z" stroke="#83A0FF" stroke-miterlimit="10"/>
<path d="M69.3239 59.9676C69.9251 59.9676 70.4125 59.4772 70.4125 58.8721C70.4125 58.2671 69.9251 57.7766 69.3239 57.7766C68.7227 57.7766 68.2354 58.2671 68.2354 58.8721C68.2354 59.4772 68.7227 59.9676 69.3239 59.9676Z" stroke="#83A0FF" stroke-miterlimit="10"/>
<defs>
<filter id="filter0_d_104_549" x="83.363" y="64.2634" width="50.7051" height="50.885" filterUnits="userSpaceOnUse" color-interpolation-filters="sRGB">
<feFlood flood-opacity="0" result="BackgroundImageFix"/>
<feColorMatrix in="SourceAlpha" type="matrix" values="0 0 0 0 0 0 0 0 0 0 0 0 0 0 0 0 0 0 127 0" result="hardAlpha"/>
<feOffset dy="5"/>
<feGaussianBlur stdDeviation="4"/>
<feColorMatrix type="matrix" values="0 0 0 0 0.968627 0 0 0 0 0.254902 0 0 0 0 0.564706 0 0 0 0.3 0"/>
<feBlend mode="normal" in2="BackgroundImageFix" result="effect1_dropShadow_104_549"/>
<feBlend mode="normal" in="SourceGraphic" in2="effect1_dropShadow_104_549" result="shape"/>
</filter>
<filter id="filter1_d_104_549" x="0" y="0" width="37.8657" height="37.9127" filterUnits="userSpaceOnUse" color-interpolation-filters="sRGB">
<feFlood flood-opacity="0" result="BackgroundImageFix"/>
<feColorMatrix in="SourceAlpha" type="matrix" values="0 0 0 0 0 0 0 0 0 0 0 0 0 0 0 0 0 0 127 0" result="hardAlpha"/>
<feOffset dy="5"/>
<feGaussianBlur stdDeviation="4"/>
<feColorMatrix type="matrix" values="0 0 0 0 0.1125 0 0 0 0 0.295916 0 0 0 0 1 0 0 0 0.22 0"/>
<feBlend mode="normal" in2="BackgroundImageFix" result="effect1_dropShadow_104_549"/>
<feBlend mode="normal" in="SourceGraphic" in2="effect1_dropShadow_104_549" result="shape"/>
</filter>
<linearGradient id="paint0_linear_104_549" x1="68.372" y1="109.364" x2="68.372" y2="95.1242" gradientUnits="userSpaceOnUse">
<stop stop-color="#F5F8FF"/>
<stop offset="0.9913" stop-color="#D8E0EB"/>
</linearGradient>
<linearGradient id="paint1_linear_104_549" x1="108.286" y1="21.692" x2="111.102" y2="21.692" gradientUnits="userSpaceOnUse">
<stop stop-color="#FF66A9"/>
<stop offset="1" stop-color="#F53689"/>
</linearGradient>
<linearGradient id="paint2_linear_104_549" x1="91.3648" y1="84.6923" x2="126.066" y2="84.6923" gradientUnits="userSpaceOnUse">
<stop stop-color="#FF66A9"/>
<stop offset="1" stop-color="#F53689"/>
</linearGradient>
<linearGradient id="paint3_linear_104_549" x1="109.769" y1="87.2707" x2="117.215" y2="94.6694" gradientUnits="userSpaceOnUse">
<stop stop-color="#E81778"/>
<stop offset="1" stop-color="#E01F79" stop-opacity="0"/>
</linearGradient>
<linearGradient id="paint4_linear_104_549" x1="114.205" y1="91.4717" x2="104.308" y2="81.6371" gradientUnits="userSpaceOnUse">
<stop offset="0.0113208" stop-color="#FFC9E3"/>
<stop offset="1" stop-color="white"/>
</linearGradient>
<linearGradient id="paint5_linear_104_549" x1="111.359" y1="94.3366" x2="101.461" y2="84.502" gradientUnits="userSpaceOnUse">
<stop offset="0.0113208" stop-color="#FFC9E3"/>
<stop offset="1" stop-color="white"/>
</linearGradient>
<linearGradient id="paint6_linear_104_549" x1="8.00129" y1="13.9387" x2="29.8537" y2="13.9387" gradientUnits="userSpaceOnUse">
<stop stop-color="#83A6FF"/>
<stop offset="1" stop-color="#5A78FF"/>
</linearGradient>
<linearGradient id="paint7_linear_104_549" x1="19.7372" y1="13.6559" x2="25.2958" y2="19.1793" gradientUnits="userSpaceOnUse">
<stop stop-color="#4F6AFF"/>
<stop offset="1" stop-color="#657EFF" stop-opacity="0"/>
</linearGradient>
<linearGradient id="paint8_linear_104_549" x1="21.4136" y1="15.3467" x2="18.9044" y2="12.8534" gradientUnits="userSpaceOnUse">
<stop offset="0.0113208" stop-color="#C2D1FF"/>
<stop offset="1" stop-color="white"/>
</linearGradient>
</defs>
</svg>
