<svg width="141" height="131" viewBox="0 0 141 131" fill="none" xmlns="http://www.w3.org/2000/svg">
<path d="M18.8246 27.5709C20.1554 27.1358 20.8835 25.6981 20.451 24.3597C20.0185 23.0212 18.589 22.2888 17.2583 22.7239C15.9275 23.1589 15.1994 24.5966 15.6319 25.9351C16.0644 27.2735 17.4939 28.0059 18.8246 27.5709Z" fill="#EAEEF9"/>
<path d="M24.3553 19.2562C25.2602 18.9604 25.7554 17.9827 25.4612 17.0726C25.1671 16.1624 24.1951 15.6644 23.2902 15.9602C22.3853 16.256 21.8902 17.2337 22.1843 18.1438C22.4784 19.054 23.4504 19.552 24.3553 19.2562Z" fill="#EAEEF9"/>
<path d="M127.077 36.2012C128.648 34.758 128.757 32.3079 127.322 30.7286C125.888 29.1494 123.452 29.0391 121.881 30.4823C120.311 31.9255 120.202 34.3756 121.636 35.9548C123.071 37.534 125.507 37.6443 127.077 36.2012Z" fill="#EAEEF9"/>
<path d="M127.368 18.8354C128.029 18.2278 128.076 17.1962 127.471 16.5312C126.867 15.8663 125.842 15.8198 125.181 16.4275C124.519 17.0351 124.473 18.0668 125.077 18.7317C125.682 19.3967 126.707 19.4431 127.368 18.8354Z" fill="#EAEEF9"/>
<path d="M69.4302 111.191C97.2486 111.191 119.8 88.5087 119.8 60.529C119.8 32.5493 97.2486 9.86734 69.4302 9.86734C41.6118 9.86734 19.0605 32.5493 19.0605 60.529C19.0605 88.5087 41.6118 111.191 69.4302 111.191Z" fill="#EAEEF9"/>
<path d="M42.5731 39.3265V44.8309V88.8668C42.5731 90.9055 44.1947 92.5365 46.1203 92.5365H117.063C119.09 92.5365 120.611 90.9055 120.611 88.8668V44.8309V39.5303C120.611 37.3897 118.888 35.6568 116.759 35.6568H46.1203L42.5731 39.3265Z" fill="white"/>
<g filter="url(#filter0_d_105_1517)">
<path d="M22.5062 34.4336V40.9574V92.9443C22.5062 95.2888 24.4318 97.2255 26.7628 97.2255H110.577C112.908 97.2255 114.834 95.2888 114.834 92.9443V40.9574V34.6375C114.834 32.0891 112.807 30.1523 110.374 30.1523H26.7628L22.5062 34.4336Z" fill="white"/>
</g>
<path d="M87.3686 38.9187H22.5062V34.4336C22.5062 32.0891 24.4318 30.1523 26.7628 30.1523H110.577C112.908 30.1523 114.834 32.0891 114.834 34.4336V38.9187H100.544H87.3686Z" fill="url(#paint0_linear_105_1517)"/>
<path d="M27.9792 36.1665C28.7628 36.1665 29.398 35.5276 29.398 34.7394C29.398 33.9513 28.7628 33.3123 27.9792 33.3123C27.1955 33.3123 26.5603 33.9513 26.5603 34.7394C26.5603 35.5276 27.1955 36.1665 27.9792 36.1665Z" fill="white"/>
<path d="M32.033 36.1665C32.8166 36.1665 33.4519 35.5276 33.4519 34.7394C33.4519 33.9513 32.8166 33.3123 32.033 33.3123C31.2494 33.3123 30.6141 33.9513 30.6141 34.7394C30.6141 35.5276 31.2494 36.1665 32.033 36.1665Z" fill="white"/>
<path d="M36.1881 36.1665C36.9718 36.1665 37.607 35.5276 37.607 34.7394C37.607 33.9513 36.9718 33.3123 36.1881 33.3123C35.4045 33.3123 34.7693 33.9513 34.7693 34.7394C34.7693 35.5276 35.4045 36.1665 36.1881 36.1665Z" fill="white"/>
<path d="M64.7681 64.0967L48.2485 63.9947C47.5391 63.9947 47.0323 63.3831 47.0323 62.7715C47.0323 62.058 47.6404 61.5483 48.2485 61.5483L64.7681 61.6502C65.4776 61.6502 65.9843 62.2618 65.9843 62.8734C65.9843 63.485 65.4776 64.0967 64.7681 64.0967Z" fill="#E3EAF2"/>
<path d="M103.99 64.0967L84.9363 63.9947C84.2268 63.9947 83.7201 63.3831 83.7201 62.7715C83.7201 62.058 84.3282 61.5483 84.9363 61.5483L103.888 61.6502C104.598 61.6502 105.104 62.2618 105.104 62.8734C105.206 63.485 104.699 64.0967 103.99 64.0967Z" fill="#E3EAF2"/>
<path d="M91.3212 88.0514L72.2679 87.9495C71.5585 87.9495 71.0518 87.3379 71.0518 86.7263C71.0518 86.0127 71.6598 85.5031 72.2679 85.5031L91.3212 85.605C92.0307 85.605 92.5374 86.2166 92.5374 86.8282C92.5374 87.5417 91.9293 88.0514 91.3212 88.0514Z" fill="url(#paint1_linear_105_1517)"/>
<path d="M79.5649 63.9948L70.3423 63.8929C69.6328 63.8929 69.1261 63.2813 69.1261 62.6697C69.1261 61.9561 69.7342 61.4464 70.3423 61.4464L79.5649 61.5484C80.2743 61.5484 80.781 62.16 80.781 62.7716C80.8824 63.4851 80.2743 63.9948 79.5649 63.9948Z" fill="url(#paint2_linear_105_1517)"/>
<path d="M41.661 63.8929H34.8707C34.1613 63.8929 33.6545 63.2813 33.6545 62.6697C33.6545 61.9561 34.1613 61.4464 34.8707 61.4464H41.661C42.3704 61.4464 42.8772 62.0581 42.8772 62.6697C42.8772 63.3832 42.3704 63.8929 41.661 63.8929Z" fill="url(#paint3_linear_105_1517)"/>
<path d="M68.0114 72.0477L58.0793 71.9458C57.3699 71.9458 56.8632 71.3342 56.8632 70.7226C56.8632 70.009 57.4712 69.4993 58.0793 69.4993L68.0114 69.6013C68.7208 69.6013 69.2275 70.2129 69.2275 70.8245C69.3289 71.4361 68.7208 72.0477 68.0114 72.0477Z" fill="url(#paint4_linear_105_1517)"/>
<path d="M98.8209 72.2516L73.5854 71.9458C72.876 71.9458 72.3693 71.3342 72.3693 70.7226C72.3693 70.009 72.9773 69.4993 73.5854 69.4993L98.8209 69.8051C99.5304 69.8051 100.037 70.4167 100.037 71.0284C100.037 71.64 99.429 72.2516 98.8209 72.2516Z" fill="#E3EAF2"/>
<path d="M51.4917 71.9458H34.8707C34.1613 71.9458 33.6545 71.3342 33.6545 70.7226C33.6545 70.009 34.2626 69.4993 34.8707 69.4993H51.4917C52.2011 69.4993 52.7079 70.1109 52.7079 70.7226C52.7079 71.3342 52.2011 71.9458 51.4917 71.9458Z" fill="#E3EAF2"/>
<path d="M81.0852 79.9986L58.0793 79.8966C57.3699 79.8966 56.8632 79.285 56.8632 78.6734C56.8632 77.9599 57.4712 77.4502 58.0793 77.4502L81.1865 77.5521C81.896 77.5521 82.4027 78.1637 82.4027 78.7754C82.4027 79.4889 81.7946 79.9986 81.0852 79.9986Z" fill="url(#paint5_linear_105_1517)"/>
<path d="M51.4917 79.8966H34.8707C34.1613 79.8966 33.6545 79.285 33.6545 78.6734C33.6545 77.9599 34.2626 77.4502 34.8707 77.4502H51.4917C52.2011 77.4502 52.7079 78.0618 52.7079 78.6734C52.7079 79.285 52.2011 79.8966 51.4917 79.8966Z" fill="#E3EAF2"/>
<path d="M65.8829 87.9494L53.2145 87.8475C52.505 87.8475 51.9983 87.2359 51.9983 86.6243C51.9983 85.9107 52.6064 85.4011 53.2145 85.4011L65.8829 85.503C66.5923 85.503 67.099 86.1146 67.099 86.7262C67.099 87.4398 66.5923 87.9494 65.8829 87.9494Z" fill="#E3EAF2"/>
<path d="M45.1068 87.8475H34.8707C34.1613 87.8475 33.6545 87.2359 33.6545 86.6243C33.6545 85.9107 34.2626 85.4011 34.8707 85.4011H45.1068C45.8162 85.4011 46.323 86.0127 46.323 86.6243C46.4243 87.3378 45.8162 87.8475 45.1068 87.8475Z" fill="url(#paint6_linear_105_1517)"/>
<path d="M81.4905 51.7626L34.8707 51.5587C34.1613 51.5587 33.6545 50.9471 33.6545 50.3355C33.6545 49.622 34.2626 49.1123 34.8707 49.1123L81.4905 49.3162C82.1999 49.3162 82.7067 49.9278 82.7067 50.5394C82.7067 51.2529 82.1999 51.7626 81.4905 51.7626Z" fill="#1C3754"/>
<path d="M5.73638 46.3803C5.93907 46.5842 6.04042 46.7881 6.04042 47.0939C5.02695 50.05 4.72291 50.1519 6.04042 50.6616C6.14177 50.6616 6.24311 50.8655 6.14177 50.9674C5.83773 51.7829 5.73638 52.3945 5.43233 52.2926C0.669008 50.5597 5.53368 47.2978 3.10135 46.3803C3 46.3803 3 46.2784 3 46.1765L3.50674 44.6474C3.50674 44.5455 3.60808 44.5455 3.70943 44.5455C4.9256 44.9532 5.02695 44.0358 5.43233 42.9145C5.93907 41.2836 7.25659 40.7739 8.7768 41.2836C9.08084 41.3855 9.38488 41.4875 9.28353 41.6913C8.7768 43.2204 8.87815 43.1184 8.27006 42.9145C6.74985 42.4049 7.15524 46.4823 5.73638 46.3803Z" fill="url(#paint7_linear_105_1517)"/>
<path d="M136.576 46.6862C136.475 46.6862 136.475 46.7881 136.576 46.6862C136.779 46.89 136.88 47.0939 136.88 47.3997C135.866 50.3558 135.562 50.4577 136.88 50.9674C136.981 50.9674 137.083 51.1713 136.981 51.2732C136.677 52.0887 136.576 52.7003 136.272 52.5984C131.508 50.8655 136.373 47.6036 133.941 46.6862C133.839 46.6862 133.839 46.5842 133.839 46.4823L134.346 44.9533C134.346 44.8513 134.448 44.8513 134.549 44.8513C135.765 45.2591 135.866 44.3416 136.272 43.2204C136.779 41.5894 138.096 41.0797 139.616 41.5894C139.92 41.6913 140.224 41.7933 140.123 41.9971C139.616 43.5262 139.718 43.4242 139.11 43.2204C137.488 42.8126 137.995 46.7881 136.576 46.6862Z" fill="url(#paint8_linear_105_1517)"/>
<path d="M77.389 2.65031C77.2877 2.54837 77.2877 2.54837 77.389 2.65031C77.1863 2.85418 76.9836 3.05805 76.7809 3.05805C73.7405 2.54837 73.5378 2.24257 73.2338 3.56772C73.2338 3.66966 73.1324 3.77159 72.9297 3.77159C72.0176 3.56772 71.5109 3.66966 71.5109 3.26192C72.423 -1.83483 76.4769 2.54837 76.8823 0.101934C76.8823 -5.84795e-07 76.9836 0 77.085 0L78.6052 0.305804C78.7065 0.305804 78.7065 0.40774 78.7065 0.509675C78.5038 1.73289 79.3146 1.73289 80.6321 1.93676C82.2537 2.24257 83.0645 3.36385 82.7604 4.99481C82.6591 5.30062 82.6591 5.60642 82.4564 5.60642C80.9362 5.30062 80.9362 5.50449 81.1389 4.79094C81.3416 2.95611 77.389 4.0774 77.389 2.65031Z" fill="url(#paint9_linear_105_1517)"/>
<path d="M46.4243 9.66349C45.7148 10.377 45.6135 11.6003 46.3229 12.3138C46.7283 12.8235 47.4377 13.0273 48.1472 12.8235C48.4512 13.2312 48.4512 13.7409 48.2485 14.1486L47.1337 15.7796C47.0324 15.8815 46.931 16.0854 46.931 16.1873L45.8162 14.9641C46.1202 13.9448 45.6135 12.9254 44.6 12.6196C43.5865 12.3138 42.5731 12.8235 42.269 13.8428C41.965 14.8622 42.4717 15.8815 43.4852 16.1873C43.7892 16.2893 44.1946 16.2893 44.4987 16.1873L47.4377 19.3473C47.1337 20.3667 47.6404 21.386 48.6539 21.6918C49.6674 21.9976 50.6809 21.4879 50.9849 20.4686C50.9849 20.3667 50.9849 20.3667 51.0862 20.2647C51.0862 20.0608 51.0862 19.857 51.0862 19.755C50.9849 18.7357 50.0728 17.9202 48.958 18.1241C48.8566 18.1241 48.8566 18.1241 48.7553 18.1241C48.4512 17.7163 48.3499 17.2067 48.6539 16.7989L49.7687 15.168C50.4782 14.0467 50.3768 12.6196 49.566 11.6003C49.566 11.4983 49.566 11.3964 49.6674 11.3964C49.6674 11.1925 49.6674 10.9886 49.6674 10.8867C49.566 9.86736 48.6539 9.15381 47.6404 9.25575C47.0324 9.25575 46.7283 9.35768 46.4243 9.66349ZM43.5865 13.9448C43.8906 13.7409 44.1946 13.7409 44.4987 13.9448C44.7014 14.2506 44.7014 14.5564 44.4987 14.8622C44.1946 15.066 43.8906 15.066 43.5865 14.8622C43.2825 14.6583 43.2825 14.2506 43.5865 13.9448ZM49.6674 19.6531C49.7687 19.755 49.7687 19.857 49.7687 19.9589C49.7687 20.2647 49.4647 20.5705 49.0593 20.5705C48.7553 20.5705 48.4512 20.2647 48.4512 19.857C48.4512 19.755 48.5526 19.5512 48.5526 19.4492C48.6539 19.2454 48.8566 19.2454 49.0593 19.2454C49.3633 19.3473 49.566 19.4492 49.6674 19.6531ZM47.1337 10.5809C47.3364 10.2751 47.7418 10.2751 48.0458 10.479C48.1472 10.479 48.1472 10.5809 48.1472 10.6828C48.1472 10.7848 48.1472 10.7848 48.2485 10.8867C48.2485 10.9886 48.2485 10.9886 48.2485 11.0906C48.2485 11.1925 48.2485 11.1925 48.2485 11.1925C48.1472 11.2944 48.0458 11.3964 47.9445 11.4983C47.6404 11.7022 47.2351 11.4983 47.1337 11.1925C47.0324 11.0906 47.0324 10.7848 47.1337 10.5809Z" fill="#CED7E2"/>
<path d="M95.1725 15.5757L93.6522 16.3912C92.132 14.8621 89.801 14.8621 88.2808 16.3912C87.47 17.2066 87.0647 18.4299 87.2674 19.6531L85.6458 20.3666C85.3418 20.4685 85.2404 20.8763 85.4431 21.0802L86.0512 22.3034C86.1525 22.6092 86.5579 22.7111 86.7606 22.5072L88.2808 21.6918C89.801 23.2208 92.132 23.2208 93.6522 21.6918C94.463 20.8763 94.8684 19.6531 94.6657 18.4299L96.1859 17.6144C96.49 17.5124 96.5913 17.1047 96.3886 16.9008L95.7805 15.6776C95.7805 15.5757 95.3751 15.4737 95.1725 15.5757ZM91.828 20.7744C90.9159 21.284 89.801 20.8763 89.2943 19.9589C88.7876 19.0415 89.193 17.9202 90.1051 17.4105C91.0172 16.9008 92.132 17.3086 92.6388 18.226C93.0442 19.1434 92.7401 20.2647 91.828 20.7744Z" fill="#CED7E2"/>
<path d="M16.6818 82.5551L15.0603 79.599C14.4522 78.4777 13.1347 78.0699 12.0199 78.6815L11.7158 78.7835L11.4118 78.2738C11.3104 78.0699 11.1077 78.0699 10.905 78.1719C10.8037 78.1719 10.8037 78.2738 10.7023 78.3757L9.89156 80.4144C9.79022 80.6183 9.89157 80.8222 10.0943 80.9241C10.0943 80.9241 10.0943 80.9241 10.1956 80.9241L12.3239 81.3319C12.5266 81.3319 12.7293 81.2299 12.7293 81.0261C12.7293 80.9241 12.7293 80.8222 12.7293 80.8222L12.4252 80.3125L12.7293 80.1086C13.0333 79.9048 13.5401 80.0067 13.6414 80.4144L15.263 83.3706C14.9589 83.8802 14.9589 84.4918 15.263 85.0015C15.6684 85.817 16.5805 86.0209 17.3913 85.6131C17.6953 85.4093 17.898 85.2054 18.1007 84.8996C18.2021 84.7976 18.2021 84.5938 18.2021 84.4918C18.3034 83.5744 17.6953 82.7589 16.7832 82.657C16.7832 82.5551 16.6818 82.5551 16.6818 82.5551ZM16.4791 84.5938C16.3778 84.5938 16.3778 84.5938 16.4791 84.5938C16.1751 84.3899 16.0738 84.0841 16.2765 83.7783C16.3778 83.5744 16.5805 83.4725 16.7832 83.4725C16.8845 83.4725 17.0872 83.5744 17.1886 83.6764C17.3913 83.8802 17.3913 84.186 17.1886 84.3899C16.8845 84.6957 16.6818 84.6957 16.4791 84.5938Z" fill="#CED7E2"/>
<path d="M7.76329 79.9047C7.05386 80.3125 6.74982 81.3318 7.15521 82.0454C7.45925 82.555 7.96599 82.8608 8.57407 82.8608L11.4118 87.9576C11.6145 88.3653 12.0199 88.4673 12.4253 88.2634C12.8307 88.0595 12.932 87.6518 12.7293 87.244L9.89158 82.1473C10.1956 81.6376 10.1956 81.026 9.89158 80.5163C9.48619 79.8028 8.47272 79.497 7.76329 79.9047ZM8.77676 81.7396C8.47272 81.8415 8.16868 81.8415 8.06734 81.5357C7.96599 81.2299 7.96598 80.9241 8.27003 80.8222C8.57407 80.7202 8.87812 80.7202 8.97946 81.026C9.08081 81.3318 8.97946 81.6376 8.77676 81.7396Z" fill="#CED7E2"/>
<path d="M128.617 66.2373L128.718 66.0335C129.022 65.4219 129.022 64.8103 128.718 64.1987L127.806 62.2619C127.705 62.1599 127.705 61.9561 127.806 61.8541L128.11 61.1406L128.617 61.4464C128.82 61.5483 129.022 61.4464 129.124 61.2425C129.124 61.1406 129.124 61.0387 129.124 61.0387L128.718 58.7961C128.718 58.5922 128.516 58.4903 128.313 58.4903H128.212L126.185 59.4077C125.982 59.5096 125.881 59.7135 125.982 59.9174C125.982 60.0193 126.083 60.0193 126.185 60.1213L126.692 60.4271L126.387 61.1406C126.286 61.2425 126.185 61.3445 126.083 61.3445L123.955 61.6503C123.347 61.7522 122.739 62.16 122.536 62.6696L122.435 62.8735C121.523 62.8735 120.813 63.587 120.813 64.5045C120.813 65.4219 121.523 66.1354 122.435 66.1354C123.347 66.1354 124.056 65.4219 124.056 64.5045C124.056 64.1986 123.955 63.8928 123.752 63.689L123.854 63.4851C123.955 63.3832 124.056 63.2812 124.158 63.2812L125.982 62.9754C126.185 62.9754 126.387 63.0774 126.489 63.2812L127.3 65.0141C127.401 65.1161 127.401 65.3199 127.3 65.4219L127.198 65.6257C126.286 65.6257 125.577 66.4412 125.678 67.2567C125.678 68.1741 126.489 68.8877 127.3 68.7857C128.212 68.7857 128.921 67.9702 128.82 67.1548C128.921 66.849 128.82 66.5432 128.617 66.2373ZM122.232 65.1161C121.928 65.0141 121.827 64.6064 122.03 64.4025C122.131 64.0967 122.536 63.9948 122.739 64.1987C123.043 64.3006 123.144 64.7083 122.942 64.9122C122.84 65.1161 122.435 65.218 122.232 65.1161ZM126.996 67.6644C126.692 67.5625 126.59 67.1548 126.793 66.9509C126.894 66.6451 127.3 66.5432 127.502 66.747C127.705 66.9509 127.908 67.2567 127.705 67.4606C127.604 67.6644 127.3 67.7664 126.996 67.6644Z" fill="#CED7E2"/>
<g filter="url(#filter1_d_105_1517)">
<path d="M124.881 94.8915C122.854 104.881 113.024 111.405 103.091 109.264C93.1594 107.225 86.6731 97.3376 88.8014 87.348C90.8284 77.3583 100.659 70.8349 110.591 72.9755C114.138 73.6891 117.381 75.422 119.915 78.0723C124.273 82.4555 126.199 88.7754 124.881 94.8915Z" fill="url(#paint10_linear_105_1517)"/>
</g>
<path d="M122.84 92.9443C122.739 93.5559 122.739 94.0656 122.536 94.5753C121.117 101.201 115.948 106.094 109.665 107.215C105.104 102.628 98.9221 96.4101 98.9221 96.4101L100.24 89.3766L108.145 88.1534L114.226 84.2798L122.84 92.9443Z" fill="url(#paint11_linear_105_1517)"/>
<path d="M115.847 91.4153C115.746 90.1921 115.341 89.0708 114.53 88.0515C114.428 87.9496 114.428 87.7457 114.428 87.6438C114.732 86.5225 114.834 85.2992 114.226 84.2799C114.226 84.178 114.124 84.178 114.023 84.178C112.706 84.076 111.287 84.5857 110.273 85.4012C110.172 85.5031 110.071 85.5031 109.969 85.5031C108.044 85.0954 106.017 85.0954 104.091 85.5031C103.888 85.6051 103.686 85.5031 103.483 85.4012C102.469 84.5857 101.152 84.178 99.8344 84.2799C99.7331 84.2799 99.7331 84.2799 99.6317 84.3818C99.429 84.6876 99.3277 84.9934 99.2263 85.4012C99.0236 86.2167 99.125 87.1341 99.3277 87.9496C99.3277 88.0515 99.3277 88.1534 99.2263 88.2554C98.7196 88.867 98.3142 89.6825 98.1115 90.4979C97.7061 92.1289 97.7061 93.8618 98.3142 95.3908C98.7196 96.614 99.6317 97.5314 100.747 98.0411C101.76 98.4489 102.875 98.7547 103.99 98.7547C105.814 98.8566 107.638 98.8566 109.361 98.8566C112.3 98.7547 114.935 97.8372 115.543 94.9831C115.847 93.556 115.949 92.5366 115.847 91.4153ZM112.807 96.2063C112.097 97.3276 110.577 97.7353 109.26 97.8372C107.435 97.9392 105.611 97.9392 103.888 97.7353C103.28 97.6334 102.773 97.5314 102.267 97.2256C101.152 96.716 100.443 95.6966 100.341 94.4734C100.24 93.7598 100.443 92.9444 100.747 92.3328C101.253 91.4153 102.165 90.9057 103.078 91.0076C103.787 91.0076 104.496 91.1095 105.104 91.2115C106.321 91.4153 107.435 91.3134 108.652 91.2115C109.26 91.1095 109.868 91.0076 110.375 91.0076C111.489 90.9057 112.503 91.5173 112.908 92.6386C113.719 93.7599 113.516 95.085 112.807 96.2063Z" fill="url(#paint12_linear_105_1517)"/>
<path d="M103.99 92.2307C103.483 91.9249 102.875 92.0269 102.571 92.5365C101.963 93.454 101.963 94.6772 102.571 95.6965C102.672 95.7985 102.773 95.9004 102.875 96.0023C103.381 96.3081 103.99 96.2062 104.294 95.6965C104.598 95.2888 104.8 94.7791 104.8 94.2694C104.8 93.6578 104.699 93.0462 104.294 92.5365C104.192 92.4346 104.091 92.3327 103.99 92.2307Z" fill="url(#paint13_linear_105_1517)"/>
<path d="M110.881 92.2307C110.375 91.9249 109.767 92.0269 109.463 92.5365C108.854 93.454 108.854 94.7791 109.463 95.6965C109.564 95.7985 109.665 95.9004 109.767 96.0023C110.273 96.3081 110.881 96.1043 111.185 95.6965C111.489 95.2888 111.692 94.6772 111.692 94.1675C111.692 93.5559 111.489 93.0462 111.185 92.6385C111.185 92.4346 110.983 92.3327 110.881 92.2307Z" fill="url(#paint14_linear_105_1517)"/>
<path d="M62.1331 105.176C61.525 105.278 61.0183 105.686 60.8156 106.298C59.194 106.604 57.8765 105.38 57.5725 104.769C58.1806 104.055 58.0792 103.036 57.3698 102.424C56.6604 101.813 55.6469 101.915 55.0388 102.628C54.4307 103.342 54.5321 104.361 55.2415 104.973C55.4442 105.075 55.6469 105.278 55.8496 105.278L56.559 109.05C55.8496 109.662 55.7482 110.681 56.3563 111.395C56.9644 112.108 57.9779 112.21 58.6873 111.598C58.7887 111.598 58.7887 111.496 58.89 111.496C58.9914 111.395 59.0927 111.293 59.194 111.089C59.5994 110.273 59.2954 109.254 58.3833 108.846C58.2819 108.846 58.2819 108.744 58.1806 108.744L57.8765 107.317C58.7887 107.929 59.9035 108.133 61.0183 108.031H61.1196C61.7277 108.744 62.7412 108.846 63.4506 108.235C63.552 108.235 63.552 108.133 63.552 108.133C63.6533 108.031 63.7547 107.929 63.856 107.725C64.2614 106.909 63.9574 105.89 63.1466 105.482C62.8426 105.176 62.4372 105.075 62.1331 105.176ZM56.255 103.036C56.559 102.934 56.8631 103.138 56.9644 103.546C57.0658 103.851 56.8631 104.157 56.4577 104.259C56.1536 104.361 55.8496 104.157 55.7482 103.749C55.7482 103.444 55.9509 103.138 56.255 103.036ZM57.8765 110.783C57.6738 110.987 57.2684 110.885 57.0658 110.681C56.8631 110.477 56.9644 110.069 57.1671 109.865C57.1671 109.865 57.2684 109.764 57.3698 109.764C57.4711 109.662 57.6738 109.764 57.7752 109.764C58.0792 109.967 58.1806 110.273 57.9779 110.579C58.0792 110.681 57.9779 110.681 57.8765 110.783ZM62.4372 107.419C62.1331 107.419 61.9304 107.113 61.9304 106.807C61.9304 106.604 62.1331 106.4 62.3358 106.298C62.4372 106.298 62.6399 106.298 62.7412 106.298C63.0452 106.4 63.1466 106.807 63.0452 107.113C62.8426 107.317 62.6399 107.419 62.4372 107.419Z" fill="#CED7E2"/>
<defs>
<filter id="filter0_d_105_1517" x="0.506226" y="19.1523" width="136.328" height="111.073" filterUnits="userSpaceOnUse" color-interpolation-filters="sRGB">
<feFlood flood-opacity="0" result="BackgroundImageFix"/>
<feColorMatrix in="SourceAlpha" type="matrix" values="0 0 0 0 0 0 0 0 0 0 0 0 0 0 0 0 0 0 127 0" result="hardAlpha"/>
<feOffset dy="11"/>
<feGaussianBlur stdDeviation="11"/>
<feColorMatrix type="matrix" values="0 0 0 0 0.397708 0 0 0 0 0.47749 0 0 0 0 0.575 0 0 0 0.18 0"/>
<feBlend mode="normal" in2="BackgroundImageFix" result="effect1_dropShadow_105_1517"/>
<feBlend mode="normal" in="SourceGraphic" in2="effect1_dropShadow_105_1517" result="shape"/>
</filter>
<filter id="filter1_d_105_1517" x="80.3967" y="69.5685" width="52.8929" height="53.1025" filterUnits="userSpaceOnUse" color-interpolation-filters="sRGB">
<feFlood flood-opacity="0" result="BackgroundImageFix"/>
<feColorMatrix in="SourceAlpha" type="matrix" values="0 0 0 0 0 0 0 0 0 0 0 0 0 0 0 0 0 0 127 0" result="hardAlpha"/>
<feOffset dy="5"/>
<feGaussianBlur stdDeviation="4"/>
<feColorMatrix type="matrix" values="0 0 0 0 0.1125 0 0 0 0 0.295916 0 0 0 0 1 0 0 0 0.22 0"/>
<feBlend mode="normal" in2="BackgroundImageFix" result="effect1_dropShadow_105_1517"/>
<feBlend mode="normal" in="SourceGraphic" in2="effect1_dropShadow_105_1517" result="shape"/>
</filter>
<linearGradient id="paint0_linear_105_1517" x1="22.0556" y1="34.5037" x2="101.718" y2="34.5037" gradientUnits="userSpaceOnUse">
<stop stop-color="#F2539D"/>
<stop offset="1" stop-color="white"/>
</linearGradient>
<linearGradient id="paint1_linear_105_1517" x1="71.0466" y1="86.7473" x2="92.5376" y2="86.7473" gradientUnits="userSpaceOnUse">
<stop stop-color="#FF66A9"/>
<stop offset="1" stop-color="#F53689"/>
</linearGradient>
<linearGradient id="paint2_linear_105_1517" x1="69.1378" y1="62.7319" x2="80.8458" y2="62.7319" gradientUnits="userSpaceOnUse">
<stop stop-color="#83A6FF"/>
<stop offset="1" stop-color="#5A78FF"/>
</linearGradient>
<linearGradient id="paint3_linear_105_1517" x1="33.6374" y1="62.6328" x2="42.9128" y2="62.6328" gradientUnits="userSpaceOnUse">
<stop stop-color="#83A6FF"/>
<stop offset="1" stop-color="#5A78FF"/>
</linearGradient>
<linearGradient id="paint4_linear_105_1517" x1="56.8678" y1="70.7278" x2="69.2881" y2="70.7278" gradientUnits="userSpaceOnUse">
<stop stop-color="#FF66A9"/>
<stop offset="1" stop-color="#F53689"/>
</linearGradient>
<linearGradient id="paint5_linear_105_1517" x1="56.8699" y1="78.7159" x2="82.3777" y2="78.7159" gradientUnits="userSpaceOnUse">
<stop stop-color="#83A6FF"/>
<stop offset="1" stop-color="#5A78FF"/>
</linearGradient>
<linearGradient id="paint6_linear_105_1517" x1="33.6444" y1="86.587" x2="46.3862" y2="86.587" gradientUnits="userSpaceOnUse">
<stop stop-color="#FF66A9"/>
<stop offset="1" stop-color="#F53689"/>
</linearGradient>
<linearGradient id="paint7_linear_105_1517" x1="3.14898" y1="46.697" x2="9.44751" y2="46.697" gradientUnits="userSpaceOnUse">
<stop stop-color="#FF66A9"/>
<stop offset="1" stop-color="#F53689"/>
</linearGradient>
<linearGradient id="paint8_linear_105_1517" x1="133.906" y1="47.077" x2="140.205" y2="47.077" gradientUnits="userSpaceOnUse">
<stop stop-color="#83A6FF"/>
<stop offset="1" stop-color="#5A78FF"/>
</linearGradient>
<linearGradient id="paint9_linear_105_1517" x1="71.5017" y1="2.75163" x2="82.7888" y2="2.75163" gradientUnits="userSpaceOnUse">
<stop stop-color="#83A6FF"/>
<stop offset="1" stop-color="#5A78FF"/>
</linearGradient>
<linearGradient id="paint10_linear_105_1517" x1="88.356" y1="91.1655" x2="125.278" y2="91.1655" gradientUnits="userSpaceOnUse">
<stop stop-color="#83A6FF"/>
<stop offset="1" stop-color="#5A78FF"/>
</linearGradient>
<linearGradient id="paint11_linear_105_1517" x1="105.376" y1="89.1573" x2="116.002" y2="99.7219" gradientUnits="userSpaceOnUse">
<stop stop-color="#4F6AFF"/>
<stop offset="1" stop-color="#657EFF" stop-opacity="0"/>
</linearGradient>
<linearGradient id="paint12_linear_105_1517" x1="114.491" y1="97.2875" x2="99.7095" y2="84.4876" gradientUnits="userSpaceOnUse">
<stop offset="0.0113208" stop-color="#C2D1FF"/>
<stop offset="1" stop-color="white"/>
</linearGradient>
<linearGradient id="paint13_linear_105_1517" x1="111.285" y1="100.989" x2="96.504" y2="88.189" gradientUnits="userSpaceOnUse">
<stop offset="0.0113208" stop-color="#C2D1FF"/>
<stop offset="1" stop-color="white"/>
</linearGradient>
<linearGradient id="paint14_linear_105_1517" x1="114.274" y1="97.5377" x2="99.4929" y2="84.7377" gradientUnits="userSpaceOnUse">
<stop offset="0.0113208" stop-color="#C2D1FF"/>
<stop offset="1" stop-color="white"/>
</linearGradient>
</defs>
</svg>
