<svg width="310" height="318" viewBox="0 0 310 318" fill="none" xmlns="http://www.w3.org/2000/svg">
<g filter="url(#filter0_d_85_157)">
<rect x="28" y="159.279" width="180" height="180" rx="32" transform="rotate(-45 28 159.279)" fill="#424242"/>
<rect x="28.7071" y="159.279" width="179" height="179" rx="31.5" transform="rotate(-45 28.7071 159.279)" stroke="#222222"/>
</g>
<g filter="url(#filter1_d_85_157)">
<rect x="27.7161" y="150.143" width="180" height="180" rx="32" transform="rotate(-45 27.7161 150.143)" fill="#222222"/>
<rect x="28.4232" y="150.143" width="179" height="179" rx="31.5" transform="rotate(-45 28.4232 150.143)" stroke="#222222"/>
</g>
<path d="M117.783 118.573C118.533 115.816 120.812 113.528 123.572 112.785C137.365 108.951 151.153 105.108 164.947 101.279C167.538 100.555 170.491 101.291 172.384 103.218L202.345 133.178C204.346 135.155 205.016 138.261 204.18 140.922C200.348 154.659 196.527 168.397 192.697 182.132C191.931 184.945 189.522 187.195 186.682 187.822C182.522 188.929 178.364 190.048 174.206 191.156C173.347 191.374 172.484 191.725 171.583 191.583C171.466 190.794 172.01 190.137 172.3 189.452C173.05 188.003 173.499 186.432 173.964 184.878C174.045 184.448 174.423 184.203 174.825 184.114C178.368 183.154 181.928 182.25 185.467 181.27C186.227 181.066 186.346 180.208 186.528 179.567C190.276 166.075 194.053 152.591 197.798 139.099C197.964 138.626 197.802 138.111 197.426 137.787C187.548 127.897 177.659 118.017 167.777 108.132C167.416 107.698 166.822 107.563 166.301 107.76C152.617 111.584 138.931 115.395 125.248 119.217C124.992 119.264 124.756 119.388 124.572 119.571C124.388 119.755 124.263 119.99 124.215 120.246C120.395 133.931 116.59 147.62 112.767 161.302C112.572 161.822 112.691 162.421 113.132 162.777C123.017 172.659 132.901 182.545 142.785 192.43C142.941 192.616 143.15 192.75 143.383 192.814C143.617 192.877 143.865 192.868 144.093 192.786C147.753 191.775 151.407 190.752 155.064 189.734C157.089 189.126 159.127 187.931 160.034 185.937C160.855 184.198 160.446 181.995 159.063 180.66C149.249 170.822 139.404 161.013 129.595 151.174C129.126 150.769 129.18 149.995 129.645 149.612C130.76 148.482 131.876 147.351 133.016 146.247C133.474 145.768 134.266 145.915 134.648 146.413C144.531 156.305 154.436 166.177 164.304 176.084C166.942 178.717 168.727 182.667 167.579 186.394C166.132 190.952 162.09 194.334 157.632 195.809C153.782 197.095 149.818 198.033 145.922 199.183C143.262 200.029 140.153 199.345 138.179 197.345L108.218 167.384C106.25 165.453 105.525 162.422 106.314 159.794C110.14 146.054 113.961 132.313 117.783 118.573Z" fill="#8CC84B"/>
<path d="M146.199 131.665C149.783 127.588 153.984 123.588 159.318 122.028C163.433 120.806 167.947 122.361 170.959 125.279C171.285 125.753 171.087 126.392 170.678 126.746C169.565 127.856 168.47 128.984 167.336 130.073C166.883 130.563 166.174 130.402 165.698 130.044C163.96 128.945 161.782 128.314 159.762 128.965C156.686 129.988 154.361 132.416 152.147 134.673C150.602 136.391 148.989 138.287 148.566 140.629C148.232 142.417 149.377 144.206 150.937 145.009C152.143 145.501 153.396 144.795 154.45 144.246C160.273 140.837 165.045 135.825 171.162 132.886C173.684 131.659 176.777 131.084 179.382 132.406C182.852 134.197 185.628 137.709 185.868 141.693C186.089 144.949 184.824 148.105 183.133 150.824C180.854 154.411 177.826 157.472 174.557 160.16C171.437 162.642 167.786 164.82 163.715 165.074C160.261 165.318 156.856 163.719 154.532 161.215C154.145 160.786 154.267 160.096 154.691 159.739C155.801 158.611 156.917 157.488 158.05 156.383C158.465 155.904 159.183 155.959 159.627 156.357C161.185 157.502 163.112 158.413 165.092 158.036C168.834 157.229 171.587 154.274 174.233 151.71C176.295 149.457 178.688 147.006 179.023 143.819C179.139 142.076 178.053 140.44 176.631 139.521C175.371 138.804 173.876 139.377 172.687 139.964C166.688 143.08 162.265 148.549 156.122 151.432C153.642 152.617 150.646 153.164 148.06 151.986C144.414 150.304 141.569 146.559 141.596 142.45C141.583 138.404 143.711 134.712 146.199 131.665L146.199 131.665Z" fill="#8CC84B"/>
<defs>
<filter id="filter0_d_85_157" x="-12" y="-4" width="334.558" height="334.558" filterUnits="userSpaceOnUse" color-interpolation-filters="sRGB">
<feFlood flood-opacity="0" result="BackgroundImageFix"/>
<feColorMatrix in="SourceAlpha" type="matrix" values="0 0 0 0 0 0 0 0 0 0 0 0 0 0 0 0 0 0 127 0" result="hardAlpha"/>
<feOffset dy="4"/>
<feGaussianBlur stdDeviation="20"/>
<feComposite in2="hardAlpha" operator="out"/>
<feColorMatrix type="matrix" values="0 0 0 0 0.0367917 0 0 0 0 0.0348958 0 0 0 0 0.0484375 0 0 0 0.1 0"/>
<feBlend mode="normal" in2="BackgroundImageFix" result="effect1_dropShadow_85_157"/>
<feBlend mode="normal" in="SourceGraphic" in2="effect1_dropShadow_85_157" result="shape"/>
</filter>
<filter id="filter1_d_85_157" x="-12.2839" y="-13.1363" width="334.558" height="334.558" filterUnits="userSpaceOnUse" color-interpolation-filters="sRGB">
<feFlood flood-opacity="0" result="BackgroundImageFix"/>
<feColorMatrix in="SourceAlpha" type="matrix" values="0 0 0 0 0 0 0 0 0 0 0 0 0 0 0 0 0 0 127 0" result="hardAlpha"/>
<feOffset dy="4"/>
<feGaussianBlur stdDeviation="20"/>
<feComposite in2="hardAlpha" operator="out"/>
<feColorMatrix type="matrix" values="0 0 0 0 0.0367917 0 0 0 0 0.0348958 0 0 0 0 0.0484375 0 0 0 0.1 0"/>
<feBlend mode="normal" in2="BackgroundImageFix" result="effect1_dropShadow_85_157"/>
<feBlend mode="normal" in="SourceGraphic" in2="effect1_dropShadow_85_157" result="shape"/>
</filter>
</defs>
</svg>
